<svg version="1.2" xmlns="http://www.w3.org/2000/svg" viewBox="0 0 1134 1102" width="51" height="50">
	<title>Proyecto nuevo</title>
	<style>
		.s0 { fill: #181823 } 
		.s1 { fill: #ffffff } 
	</style>
	<path id="Forma 1" class="s0" d="m566.5 1091c-307.7 0-556.5-241.2-556.5-539.5 0-298.3 248.8-539.5 556.5-539.5 307.7 0 556.5 241.2 556.5 539.5 0 298.3-248.8 539.5-556.5 539.5z"/>
	<path id="Path 0" class="s1" d="m295.5 265.6c-2.2 0.2-9.2 0.9-15.5 1.4-6.3 0.6-16.2 1.7-22 2.6-5.8 0.8-19.3 3.3-30 5.4-10.7 2.2-24 5.1-29.5 6.4-7.4 1.8-10.2 2.1-10.7 1.3-0.4-0.7-0.9-3.8-1.2-7-0.4-3.1-0.9-5.9-1.4-6.2-0.4-0.2-5.8 0.5-12 1.5-9.6 1.7-11.1 2.2-10.8 3.7 0.3 1 5.3 26.8 11.2 57.3 5.9 30.5 10.8 55.6 10.8 55.8 0.1 0.2 4.4-0.4 9.6-1.3 5.2-0.9 10.3-1.8 11.3-2.1 1.6-0.4 1.7-3.2 1.7-40.9v-40.5c19.8-4.6 30.2-6.9 36-8 5.8-1.1 16.8-2.8 24.5-3.7 10.8-1.4 21.6-1.8 47.5-1.8 27.2 0 35.7 0.4 45 1.8 6.3 1 16 2.7 21.5 3.9 5.5 1.1 14.7 3.5 20.5 5.4 5.8 1.8 15.4 5.4 21.5 7.9 6.1 2.5 15.1 6.9 20 9.7 4.9 2.8 12.6 7.5 17 10.6 4.4 3 11.4 8.3 15.5 11.7 4.1 3.5 11.6 10.5 16.5 15.6 5 5.2 11.8 13 15.1 17.4 3.4 4.4 8.5 11.6 11.4 16 2.8 4.4 8.7 15 12.9 23.5 4.4 8.9 9.9 22.1 12.9 31 2.8 8.5 6.5 21.1 8.1 28 1.6 6.9 3.9 18.6 5 26 1.1 7.4 2.5 21.4 3.2 31 0.7 10 0.9 25 0.6 35-0.4 9.6-1.1 21.5-1.7 26.5-0.6 5-1.7 13.3-2.6 18.5-0.8 5.2-3.1 15.6-4.9 23-1.9 7.4-5.2 18.9-7.5 25.5-2.3 6.6-7.7 19.2-12 28-4.4 8.8-10.7 20.3-14.1 25.5-3.3 5.2-9.6 13.8-13.8 19-4.2 5.2-11.7 13.5-16.6 18.5-5 5-12.6 11.9-17 15.4-4.4 3.5-12.1 9.1-17 12.4-4.9 3.2-16 9.4-24.5 13.6-8.5 4.2-21.1 9.6-28 11.9-6.9 2.2-18.1 5.5-25 7.1-6.9 1.7-17 3.7-22.5 4.5-5.5 0.8-17 2-25.5 2.7-9.2 0.7-23 0.9-34 0.6-10.2-0.4-24.4-1.1-31.5-1.7-7.1-0.6-20.7-2.2-30-3.6-9.3-1.3-18.6-2.8-20.5-3.2l-3.5-0.8-0.5-252.4h66v-21h-168v21h38v263c6.6 1.7 15.9 3.9 25 6 9.1 2.1 23 5.2 31 6.9 8 1.6 23.9 4.3 35.5 6 11.6 1.7 25.7 3.6 31.5 4.2 5.8 0.5 25.6 1.3 44 1.6 21.6 0.4 39 0.1 49-0.6 8.5-0.7 21.1-2 28-3.1 6.9-1 19-3.3 27-5 8-1.8 20.6-5.2 28-7.7 7.4-2.4 17.2-6 21.8-7.9 4.5-1.9 12.8-5.7 18.4-8.5 5.7-2.9 14.4-7.6 19.3-10.6 4.9-3 14.2-9.4 20.5-14.1 6.3-4.8 17.1-14.3 24-21.2 6.9-6.9 15.5-16.3 19.1-21 3.7-4.7 9.5-13 13.1-18.5 3.5-5.5 8.3-13.4 10.5-17.5 2.2-4.1 6.6-13.2 9.7-20.3 3.1-7 7.4-18 9.5-24.5 2.2-6.4 5.3-17.3 7-24.2 1.7-6.9 4.2-19.5 5.5-28 1.3-8.5 3-23.1 3.7-32.5 0.7-10.3 0.9-24.1 0.6-35-0.4-9.9-1.4-23.6-2.2-30.5-0.9-6.9-2.5-17.2-3.6-23-1.1-5.8-2.9-13.9-3.9-18-1.1-4.1-3.6-12.5-5.6-18.5-2-6.1-5.4-15.3-7.6-20.5-2.1-5.2-6.6-14.7-9.9-21-3.4-6.3-9-16-12.6-21.5-3.6-5.5-9.6-13.8-13.2-18.5-3.6-4.6-11.3-13.3-17.1-19.3-5.8-6.1-15.7-15.1-22-20.2-6.3-5.1-16.5-12.5-22.5-16.4-6.1-4-17.5-10.5-25.5-14.6-8-4-17.9-8.7-22-10.3-4.1-1.6-13.1-4.9-20-7.2-6.9-2.3-17.9-5.5-24.5-7.1-6.6-1.6-17.4-3.8-24-4.9-6.6-1.1-17.9-2.8-25-3.6-7.5-0.9-24.2-1.7-39.5-1.9-14.6-0.1-28.3-0.1-30.5 0.1z"/>
	<path id="Path 0" fill-rule="evenodd" class="s1" d="m856.5 277.5c11.5 0.3 27.1 1.1 34.5 1.9 7.4 0.9 18.7 2.5 25 3.6 6.3 1.1 16.5 3.4 22.5 5.1 6 1.7 15 4.7 20 6.6 5 1.9 13.7 5.9 19.5 8.9 5.8 3 14.3 8.3 19 11.8 4.7 3.5 11.9 9.9 16 14.3 4.1 4.3 9.6 11 12.2 14.8 2.6 3.9 6.3 10.8 8.4 15.5 2 4.7 4.7 12.8 6.1 18 1.3 5.2 2.8 13.3 3.3 18 0.5 4.7 1 12.1 1 16.5-0.1 4.4-0.5 11.4-1 15.5-0.6 4.1-2 11.3-3.1 16-1.2 4.7-3.8 12.3-5.8 17-2 4.7-6.2 12.4-9.4 17.3-3.1 4.8-9 12.1-12.9 16.3-4 4.2-10.9 10.5-15.3 13.9-4.4 3.5-12.5 9.1-18 12.4-5.5 3.4-15.6 8.7-22.5 11.7-6.9 3.1-19 7.8-27 10.4-8 2.7-21.2 6.4-29.5 8.4-8.2 1.9-22 4.7-30.5 6-8.5 1.4-21.6 3.2-29 4-7.4 0.9-19.8 2-27.5 2.6-7.7 0.5-22.2 1-50.5 1v259h66v21h-168v-21h37v-520h-66v-20.5l53.7-0.7c29.6-0.3 66.2-1.4 81.3-2.2 15.1-0.9 37-2 48.5-2.5 11.5-0.5 30.5-0.8 42-0.6zm-88.8 24.9l-5.7 0.6v241c8.1 0 18.8-0.5 29-1 10.2-0.6 25.7-1.9 34.5-3 8.8-1.1 20.3-2.8 25.5-3.9 5.2-1.1 14.2-3.1 20-4.6 5.8-1.5 15.2-4.4 21-6.5 5.8-2 13.4-5.1 17-6.7 3.6-1.6 10.1-5.1 14.5-7.7 4.4-2.7 12-8 16.9-11.9 4.8-4 11.9-11 15.7-15.7 3.9-4.8 9.1-12.9 11.9-18.5 2.7-5.5 6.2-14.5 7.7-20 2.4-9 2.6-11.8 2.7-28 0.1-13.9-0.3-19.9-1.8-26.5-1-4.7-3-11.9-4.5-16-1.4-4.1-4.6-11.1-7.1-15.4-2.5-4.4-7.9-11.6-12.1-16-4.2-4.5-10.9-10.4-15-13.2-4.1-2.8-11.2-7.1-15.9-9.4-4.7-2.3-13.7-6-20-8.1-6.3-2.1-16-4.7-21.5-5.8-5.5-1.1-15.2-2.7-21.5-3.6-7.4-1.1-21.1-1.7-38.5-2-14.9-0.2-31.5 0-37 0.5-5.5 0.4-12.6 1-15.8 1.4z"/>
</svg>